trial_4_ID.mot
nRows=11
nColumns=42

name trial_4_ID.mot
datacolumns 42
datarows 11
range 6.9000000000 7.0000000000
endheader
time	pelvis_tilt_moment	pelvis_list_moment	pelvis_rotation_moment	pelvis_tx_force	pelvis_ty_force	pelvis_tz_force	hip_flexion_r_moment	hip_adduction_r_moment	hip_rotation_r_moment	knee_angle_r_moment	knee_vv_r_moment	knee_rot_r_moment	ankle_angle_r_moment	subtalar_angle_r_moment	mtp_angle_r_moment	hip_flexion_l_moment	hip_adduction_l_moment	hip_rotation_l_moment	knee_angle_l_moment	knee_vv_l_moment	knee_rot_l_moment	ankle_angle_l_moment	subtalar_angle_l_moment	mtp_angle_l_moment	lumbar_extension_moment	lumbar_bending_moment	lumbar_rotation_moment	arm_flex_r_moment	arm_add_r_moment	arm_rot_r_moment	elbow_flex_r_moment	pro_sup_r_moment	wrist_flex_r_moment	wrist_dev_r_moment	arm_flex_l_moment	arm_add_l_moment	arm_rot_l_moment	elbow_flex_l_moment	pro_sup_l_moment	wrist_flex_l_moment	wrist_dev_l_moment
        6.9000000000	        9.1207995800	       -2.4927134200	       -4.7449122500	        2.9187399400	       12.9593572100	        9.4660373600	       -6.8010073000	      -42.4429760600	        2.0123453500	        9.2405402800	      -18.7763097700	       -1.7354163400	      -11.0886561700	        7.7501347400	        0.0266763400	        8.0515526700	        3.1453077200	       -2.4248589600	        2.4443717500	       -2.7179798800	       -0.2418266900	        0.6324399800	        0.0909681400	        0.0270063400	       23.3676234800	        0.6959779000	       -4.5446849600	       -1.4047008200	       -1.3284161900	        0.0266447900	       -0.0981751500	        0.0055941800	        0.0338526400	        0.0192762100	        0.3626588300	       -1.8384207200	       -0.0556559100	       -0.3041634500	       -0.0159613800	       -0.0418777500	       -0.0047353200	
        6.9100000000	        7.4639688700	       -1.8193581500	       -4.9639652000	        5.7898221600	       11.8506563000	        8.9471049500	       -6.5845667300	      -41.7028172700	        1.9384235800	        7.9674313600	      -18.2905478800	       -1.5806708600	      -11.6332066900	        7.9381220000	        0.0265053600	        8.0619214800	        2.6885217800	       -2.1285876700	        2.1316949800	       -2.3866218300	       -0.2035141500	        0.6647930400	        0.0557532200	        0.0281401000	       21.2886682500	        1.2539544100	       -4.7703863800	       -1.4117597200	       -1.3284586300	        0.0330037700	       -0.0955959300	        0.0059619400	        0.0343715100	        0.0197644200	        0.5031635200	       -1.7894259200	       -0.0448059000	       -0.2837763100	       -0.0156525500	       -0.0455503000	       -0.0057439800	
        6.9200000000	        5.8456284900	       -0.6670759800	       -5.2272566200	        9.2239238900	        9.5353795400	        8.2293884200	       -6.3250831800	      -41.0529235200	        1.8781968300	        6.7170505300	      -17.8690763500	       -1.4365647100	      -12.2235011000	        8.1299905200	        0.0263969200	        8.1112007800	        2.0441278800	       -1.7140278900	        1.8209848200	       -1.9237813000	       -0.1561019000	        0.7170702100	        0.0095390300	        0.0299738800	       19.0336623200	        1.8655948100	       -4.8890019600	       -1.3930025300	       -1.3219502100	        0.0385286000	       -0.0928120500	        0.0063139500	        0.0343132100	        0.0202900800	        0.6420173000	       -1.7191196100	       -0.0362855200	       -0.2534199400	       -0.0156695300	       -0.0482758800	       -0.0077262600	
        6.9300000000	        4.2558279100	        0.9951336100	       -5.5364951000	       12.6680124100	        6.4986706300	        7.2029284700	       -6.0240245000	      -40.4790284600	        1.8298570100	        5.4976696400	      -17.5108727700	       -1.3061717200	      -12.8629344100	        8.3232084700	        0.0263887800	        8.1010363000	        1.1831822900	       -1.1729083200	        1.4896545500	       -1.3140530700	       -0.1013001500	        0.7824420500	       -0.0463650200	        0.0322621600	       16.7677293700	        2.5054917500	       -4.9319175000	       -1.3517000500	       -1.3100609300	        0.0434861000	       -0.0904068900	        0.0067113200	        0.0337782400	        0.0210444700	        0.7716978600	       -1.6323335400	       -0.0299594900	       -0.2159909500	       -0.0159066900	       -0.0499880600	       -0.0104051000	
        6.9400000000	        2.6506246200	        3.1282208400	       -5.8739148100	       15.5503712800	        3.2213571100	        5.7384642900	       -5.6919149400	      -39.9681102600	        1.7911813800	        4.3126087100	      -17.2104444000	       -1.1908071700	      -13.5555176400	        8.5174059300	        0.0264971400	        7.9215718700	        0.0941340600	       -0.5145412800	        1.1129850100	       -0.5585905500	       -0.0420741200	        0.8547724400	       -0.1097173300	        0.0348230100	       14.6417138900	        3.1275183300	       -4.9399083100	       -1.2928615400	       -1.2949639500	        0.0481607600	       -0.0891070000	        0.0072051600	        0.0328931400	        0.0222095700	        0.8873307200	       -1.5364708500	       -0.0254423600	       -0.1748503700	       -0.0162491000	       -0.0507754800	       -0.0134704200	
        6.9500000000	        0.9801910000	        5.6176378200	       -6.2002141200	       17.3687985200	        0.1253460700	        3.7348921700	       -5.3400091000	      -39.5126290800	        1.7596929600	        3.1606649200	      -16.9597645100	       -1.0903631200	      -14.3077803700	        8.7145347000	        0.0267165000	        7.4706961800	       -1.2016534500	        0.2275843600	        0.6674381800	        0.3158978200	        0.0169910000	        0.9288728700	       -0.1769694500	        0.0375503400	       12.7820884400	        3.6739164900	       -4.9535789100	       -1.2222405700	       -1.2782922400	        0.0529081700	       -0.0892459000	        0.0078272300	        0.0318267800	        0.0238946000	        0.9863907200	       -1.4410072800	       -0.0221941200	       -0.1336447100	       -0.0165840900	       -0.0508622500	       -0.0165946600	
        6.9600000000	       -0.7975103200	        8.2731089300	       -6.4608082800	       17.7484841900	       -2.4684544100	        1.1734117700	       -4.9880888000	      -39.1136630000	        1.7327214100	        2.0334684000	      -16.7507159900	       -1.0040376700	      -15.1305347200	        8.9183123100	        0.0270240800	        6.6778731200	       -2.6357548800	        0.9940936200	        0.1354595900	        1.2513761300	        0.0696715300	        1.0005901600	       -0.2431171300	        0.0404095500	       11.2822690700	        4.0856114600	       -5.0054478500	       -1.1455330800	       -1.2601520700	        0.0581771700	       -0.0904642300	        0.0085826100	        0.0307889100	        0.0260972900	        1.0681507700	       -1.3563483600	       -0.0196149500	       -0.0959973100	       -0.0168099100	       -0.0505621700	       -0.0194576600	
        6.9700000000	       -2.6913639900	       10.8352052200	       -6.5981973400	       16.4986291500	       -4.3554575500	       -1.8289026500	       -4.6596235600	      -38.7831498500	        1.7075406600	        0.9191565800	      -16.5773293100	       -0.9310224000	      -16.0395328900	        9.1334944300	        0.0273856900	        5.5265031200	       -4.0842487300	        1.7047198000	       -0.4895878600	        2.1581011700	        0.1085540500	        1.0667135900	       -0.3018818100	        0.0434171500	       10.1971743800	        4.3117900800	       -5.1156717400	       -1.0679407000	       -1.2392816500	        0.0644276800	       -0.0917914700	        0.0094444900	        0.0299973300	        0.0287027000	        1.1331802700	       -1.2921278400	       -0.0171216500	       -0.0650547700	       -0.0168424000	       -0.0502155500	       -0.0217838900	
        6.9800000000	       -4.6646363600	       12.9947242100	       -6.5672623200	       13.6378406600	       -5.4414325600	       -4.9907171500	       -4.3785552700	      -38.5436679200	        1.6816931800	       -0.1950460500	      -16.4373192100	       -0.8708539600	      -17.0553168800	        9.3650846300	        0.0277625900	        4.0658130800	       -5.3711103800	        2.2708046800	       -1.2005700600	        2.9219129500	        0.1260607700	        1.1246663000	       -0.3463136500	        0.0466051100	        9.5417645600	        4.3171200200	       -5.2913245100	       -0.9939196400	       -1.2141561000	        0.0719319200	       -0.0919890300	        0.0103506600	        0.0296210800	        0.0315097400	        1.1829680000	       -1.2554983400	       -0.0142061600	       -0.0430345700	       -0.0166205300	       -0.0501252200	       -0.0233802000	
        6.9900000000	       -6.7685123800	       14.4077653800	       -6.3261212300	        9.2051326600	       -5.8040981800	       -7.8669712000	       -4.1647951800	      -38.4237849500	        1.6530641500	       -1.3198068800	      -16.3317942200	       -0.8236817400	      -18.2021916500	        9.6174300300	        0.0281180400	        2.2846345800	       -6.2725362400	        2.6138271200	       -2.0202128500	        3.4206453400	        0.1163497600	        1.1692222800	       -0.3695594700	        0.0499197700	        9.2936301700	        4.0852632200	       -5.5276334200	       -0.9268711300	       -1.1842210300	        0.0805435200	       -0.0898970400	        0.0112037600	        0.0297264500	        0.0342659800	        1.2194918800	       -1.2501251100	       -0.0104866200	       -0.0309987100	       -0.0161103400	       -0.0505091500	       -0.0241547700	
        7.0000000000	       -9.1134718200	       14.7628023400	       -5.8557817200	        3.2959253900	       -5.6424828100	       -9.9472419600	       -4.0298357100	      -38.4490761700	        1.6193444600	       -2.4607573800	      -16.2626173100	       -0.7907916800	      -19.5060446500	        9.8934244900	        0.0284222900	        0.1306100200	       -6.5609138600	        2.6870142900	       -2.9970929400	        3.5502243400	        0.0773797500	        1.1938130900	       -0.3666577200	        0.0532283600	        9.3998083100	        3.6186665800	       -5.8095887800	       -0.8687669300	       -1.1504807700	        0.0895688300	       -0.0846087900	        0.0118787600	        0.0302540800	        0.0366982200	        1.2445829200	       -1.2761991900	       -0.0057568400	       -0.0289599100	       -0.0153068500	       -0.0514789200	       -0.0241075200	
